
        <svg data-logo="logo" xmlns="http://www.w3.org/2000/svg" viewBox="0 0 135 41">
          <g id="logogram" transform="translate(0, 0) rotate(0)"><path fill-rule="evenodd" clip-rule="evenodd" d="M29.4554 3.35714V0.931396H35V23.2829C35 32.9479 27.165 40.7829 17.5 40.7829C8.24271 40.7829 0.664262 33.5949 0.0413736 24.4958H0V0.931396H5.54455V3.35714L14.901 3.35714V0.931396H20.4455V3.35714L29.4554 3.35714ZM29.4554 23.2829V19.881C28.8318 20.524 28.1633 21.1346 27.4539 21.7097C25.1121 23.6084 22.3612 25.0917 19.369 26.0965C16.3764 27.1015 13.1833 27.6146 9.96797 27.6146H6.35343C8.08848 32.0761 12.425 35.2383 17.5 35.2383C24.1028 35.2383 29.4554 29.8857 29.4554 23.2829ZM15.4269 19.1072C14.3706 20.2269 13.18 21.1978 11.8852 21.9954C13.8545 21.8417 15.7827 21.4521 17.6038 20.8405C20.013 20.0314 22.1698 18.8559 23.9621 17.4029C25.7535 15.9504 27.136 14.2575 28.0645 12.44C28.6507 11.2926 29.0518 10.1045 29.2674 8.90169H20.2671C20.0641 10.3759 19.6891 11.8227 19.1475 13.2087C18.2893 15.4049 17.0275 17.4105 15.4269 19.1072ZM5.54455 18.6798V8.90169H14.6483C14.4948 9.68424 14.2724 10.4507 13.9832 11.1907C13.3786 12.738 12.4962 14.1339 11.3938 15.3024C10.2918 16.4706 8.99228 17.388 7.57404 18.0107C6.91535 18.2999 6.23601 18.5234 5.54455 18.6798Z" fill="#FF00BF"/></g>
          <g id="logotype" transform="translate(37, 8.5)"><path fill="#0c0b31" d="M12.50 20L3.46 20L3.46 5.45L6.07 5.45L6.07 17.80L12.50 17.80L12.50 20ZM18.03 20.22L18.03 20.22Q16.44 20.22 15.27 19.52Q14.10 18.81 13.46 17.54Q12.82 16.28 12.82 14.60L12.82 14.60Q12.82 12.90 13.46 11.63Q14.10 10.35 15.27 9.65Q16.44 8.95 18.03 8.95L18.03 8.95Q19.63 8.95 20.81 9.65Q21.98 10.35 22.62 11.63Q23.26 12.90 23.26 14.60L23.26 14.60Q23.26 16.28 22.62 17.54Q21.98 18.81 20.81 19.52Q19.63 20.22 18.03 20.22ZM18.03 18.16L18.03 18.16Q18.92 18.16 19.51 17.69Q20.10 17.21 20.39 16.40Q20.68 15.59 20.68 14.59L20.68 14.59Q20.68 13.58 20.39 12.77Q20.10 11.96 19.51 11.48Q18.92 11.01 18.03 11.01L18.03 11.01Q17.14 11.01 16.56 11.48Q15.98 11.96 15.69 12.77Q15.41 13.57 15.41 14.59L15.41 14.59Q15.41 15.59 15.69 16.40Q15.98 17.21 16.56 17.69Q17.14 18.16 18.03 18.16ZM28.82 24.32L28.82 24.32Q27.51 24.32 26.54 23.98Q25.57 23.65 24.95 23.08Q24.33 22.51 24.06 21.79L24.06 21.79L26.20 21.02Q26.38 21.32 26.69 21.64Q26.99 21.96 27.51 22.17Q28.02 22.38 28.81 22.38L28.81 22.38Q29.99 22.38 30.71 21.83Q31.42 21.28 31.42 20.11L31.42 20.11L31.42 18.05L31.20 18.05Q31.02 18.44 30.66 18.85Q30.30 19.27 29.69 19.55Q29.07 19.83 28.13 19.83L28.13 19.83Q26.88 19.83 25.86 19.24Q24.84 18.65 24.24 17.47Q23.64 16.29 23.64 14.51L23.64 14.51Q23.64 12.71 24.24 11.47Q24.85 10.23 25.87 9.59Q26.89 8.95 28.15 8.95L28.15 8.95Q29.11 8.95 29.74 9.27Q30.36 9.59 30.74 10.04Q31.11 10.50 31.30 10.89L31.30 10.89L31.44 10.89L31.44 9.08L33.93 9.08L33.93 20.03Q33.93 21.48 33.26 22.44Q32.60 23.39 31.45 23.85Q30.30 24.32 28.82 24.32ZM28.84 17.83L28.84 17.83Q29.67 17.83 30.25 17.44Q30.82 17.04 31.13 16.29Q31.43 15.54 31.43 14.49L31.43 14.49Q31.43 13.46 31.13 12.68Q30.83 11.90 30.26 11.47Q29.68 11.04 28.84 11.04L28.84 11.04Q27.98 11.04 27.40 11.49Q26.82 11.94 26.53 12.72Q26.23 13.50 26.23 14.49L26.23 14.49Q26.23 15.50 26.53 16.25Q26.83 17.00 27.41 17.42Q27.99 17.83 28.84 17.83ZM40.00 20.22L40.00 20.22Q38.41 20.22 37.24 19.52Q36.06 18.81 35.42 17.54Q34.79 16.28 34.79 14.60L34.79 14.60Q34.79 12.90 35.42 11.63Q36.06 10.35 37.24 9.65Q38.41 8.95 40.00 8.95L40.00 8.95Q41.60 8.95 42.77 9.65Q43.95 10.35 44.59 11.63Q45.22 12.90 45.22 14.60L45.22 14.60Q45.22 16.28 44.59 17.54Q43.95 18.81 42.77 19.52Q41.60 20.22 40.00 20.22ZM40.00 18.16L40.00 18.16Q40.89 18.16 41.48 17.69Q42.07 17.21 42.36 16.40Q42.65 15.59 42.65 14.59L42.65 14.59Q42.65 13.58 42.36 12.77Q42.07 11.96 41.48 11.48Q40.89 11.01 40.00 11.01L40.00 11.01Q39.11 11.01 38.53 11.48Q37.95 11.96 37.66 12.77Q37.37 13.57 37.37 14.59L37.37 14.59Q37.37 15.59 37.66 16.40Q37.95 17.21 38.53 17.69Q39.11 18.16 40.00 18.16ZM48.62 20L46.08 20L46.08 9.08L48.62 9.08L48.62 20ZM47.35 7.54L47.35 7.54Q46.75 7.54 46.31 7.13Q45.88 6.72 45.88 6.15L45.88 6.15Q45.88 5.57 46.31 5.16Q46.75 4.76 47.35 4.76L47.35 4.76Q47.97 4.76 48.40 5.16Q48.84 5.57 48.84 6.14L48.84 6.14Q48.84 6.72 48.40 7.13Q47.97 7.54 47.35 7.54ZM52.49 24.08L49.96 24.08L49.96 9.08L52.44 9.08L52.44 10.89L52.60 10.89Q52.80 10.50 53.16 10.05Q53.52 9.60 54.14 9.27Q54.76 8.95 55.73 8.95L55.73 8.95Q57.00 8.95 58.01 9.59Q59.03 10.23 59.63 11.49Q60.23 12.74 60.23 14.56L60.23 14.56Q60.23 16.36 59.64 17.62Q59.06 18.88 58.04 19.54Q57.02 20.20 55.72 20.20L55.72 20.20Q54.79 20.20 54.16 19.88Q53.54 19.56 53.17 19.11Q52.80 18.66 52.60 18.27L52.60 18.27L52.49 18.27L52.49 24.08ZM55.03 18.11L55.03 18.11Q55.88 18.11 56.46 17.64Q57.04 17.18 57.33 16.37Q57.62 15.57 57.62 14.55L57.62 14.55Q57.62 13.54 57.33 12.74Q57.05 11.94 56.47 11.49Q55.89 11.04 55.03 11.04L55.03 11.04Q54.19 11.04 53.62 11.47Q53.04 11.91 52.74 12.70Q52.45 13.49 52.45 14.55L52.45 14.55Q52.45 15.62 52.74 16.42Q53.04 17.22 53.62 17.66Q54.20 18.11 55.03 18.11ZM65.21 20.22L65.21 20.22Q63.95 20.22 62.98 19.86Q62.01 19.50 61.39 18.81Q60.77 18.12 60.59 17.13L60.59 17.13L62.96 16.68Q63.19 17.49 63.76 17.89Q64.33 18.28 65.26 18.28L65.26 18.28Q66.19 18.28 66.75 17.91Q67.30 17.53 67.30 16.97L67.30 16.97Q67.30 16.50 66.94 16.20Q66.57 15.89 65.82 15.72L65.82 15.72L63.96 15.32Q62.41 14.99 61.65 14.23Q60.89 13.47 60.89 12.27L60.89 12.27Q60.89 11.25 61.45 10.51Q62.00 9.77 63.00 9.36Q63.99 8.95 65.30 8.95L65.30 8.95Q66.54 8.95 67.43 9.30Q68.32 9.65 68.87 10.28Q69.43 10.91 69.64 11.76L69.64 11.76L67.38 12.21Q67.19 11.63 66.70 11.24Q66.21 10.84 65.32 10.84L65.32 10.84Q64.51 10.84 63.97 11.20Q63.43 11.55 63.43 12.11L63.43 12.11Q63.43 12.59 63.79 12.90Q64.15 13.21 64.98 13.39L64.98 13.39L66.84 13.78Q68.39 14.11 69.14 14.84Q69.89 15.58 69.89 16.73L69.89 16.73Q69.89 17.76 69.30 18.55Q68.70 19.34 67.64 19.78Q66.58 20.22 65.21 20.22ZM74.44 20.14L74.44 20.14Q73.32 20.14 72.48 19.66Q71.63 19.18 71.17 18.26Q70.70 17.33 70.70 16.03L70.70 16.03L70.70 9.08L73.24 9.08L73.24 15.63Q73.24 16.73 73.81 17.35Q74.38 17.98 75.38 17.98L75.38 17.98Q76.05 17.98 76.58 17.69Q77.11 17.39 77.41 16.83Q77.70 16.26 77.70 15.48L77.70 15.48L77.70 9.08L80.25 9.08L80.25 20L77.84 20L77.81 17.30L78.01 17.30Q77.55 18.73 76.65 19.43Q75.75 20.14 74.44 20.14ZM84.13 20L81.59 20L81.59 9.08L83.97 9.08L84.07 11.71L83.88 11.71Q84.12 10.73 84.61 10.12Q85.10 9.50 85.76 9.20Q86.42 8.91 87.15 8.91L87.15 8.91Q88.33 8.91 89.05 9.65Q89.78 10.39 90.08 11.84L90.08 11.84L89.78 11.84Q90.01 10.86 90.55 10.21Q91.09 9.56 91.84 9.23Q92.58 8.91 93.43 8.91L93.43 8.91Q94.42 8.91 95.20 9.34Q95.98 9.77 96.44 10.59Q96.90 11.42 96.90 12.64L96.90 12.64L96.90 20L94.36 20L94.36 13.03Q94.36 12.01 93.81 11.54Q93.25 11.07 92.47 11.07L92.47 11.07Q91.86 11.07 91.41 11.34Q90.96 11.60 90.72 12.07Q90.49 12.53 90.49 13.14L90.49 13.14L90.49 20L88.00 20L88.00 12.91Q88.00 12.08 87.49 11.58Q86.97 11.07 86.16 11.07L86.16 11.07Q85.60 11.07 85.14 11.33Q84.67 11.58 84.40 12.08Q84.13 12.58 84.13 13.31L84.13 13.31L84.13 20Z"/></g>
          
        </svg>
      